# xmcd
#
# Track frame offsets: 
#        150
#        16550
#        32950
#        70490
#        103840
#
# Disc length: 1966 seconds
#
# Revision: 0
# Processed by: cddbd v1.5.2PL0 Copyright (c) Steve Scherf et al.
# Submitted via: ExactAudioCopy v0.95b4
#
DISCID=3b07ac05
DTITLE=Vernon J. Price - Hide and Seek
DYEAR=2002
DGENRE=
TTITLE0=radio edit
TTITLE1=ambient mix
TTITLE2=extended mix
TTITLE3=vernon´s world mix
TTITLE4=christopher von deylen mix
EXTD=
EXTT0=
EXTT1=
EXTT2=
EXTT3=
EXTT4=
PLAYORDER=
